<svg width="26" height="28" viewBox="0 0 26 28" fill="none" xmlns="http://www.w3.org/2000/svg">
<path d="M8.07471 3.08878H7.81689C7.95869 3.08878 8.07471 2.96924 8.07471 2.82315V3.08878H17.8716V2.82315C17.8716 2.96924 17.9876 3.08878 18.1294 3.08878H17.8716V5.4794H20.1919V2.82315C20.1919 1.65108 19.267 0.698151 18.1294 0.698151H7.81689C6.6793 0.698151 5.75439 1.65108 5.75439 2.82315V5.4794H8.07471V3.08878ZM24.3169 5.4794H1.62939C1.05898 5.4794 0.598145 5.95421 0.598145 6.5419V7.6044C0.598145 7.75049 0.71416 7.87003 0.855957 7.87003H2.80244L3.59844 25.2353C3.65 26.3675 4.55879 27.2607 5.65771 27.2607H20.2886C21.3907 27.2607 22.2963 26.3708 22.3479 25.2353L23.1438 7.87003H25.0903C25.2321 7.87003 25.3481 7.75049 25.3481 7.6044V6.5419C25.3481 5.95421 24.8873 5.4794 24.3169 5.4794ZM20.0404 24.87H5.90586L5.12598 7.87003H20.8203L20.0404 24.87Z" fill="#031323"/>
</svg>
