<svg width="27" height="27" viewBox="0 0 27 27" fill="none" xmlns="http://www.w3.org/2000/svg">
<path d="M18.7896 4.64073L21.7018 7.63982L18.7896 4.64073ZM20.6623 1.99865L12.7877 10.1119C12.3808 10.5305 12.1033 11.0639 11.9902 11.6447L11.2628 15.3961L14.9038 14.6452C15.4676 14.5291 15.9846 14.2443 16.3916 13.825L24.2662 5.71173C24.5028 5.46793 24.6905 5.17849 24.8186 4.85994C24.9467 4.5414 25.0126 4.19998 25.0126 3.85519C25.0126 3.5104 24.9467 3.16898 24.8186 2.85044C24.6905 2.53189 24.5028 2.24245 24.2662 1.99865C24.0296 1.75484 23.7486 1.56145 23.4395 1.4295C23.1303 1.29756 22.7989 1.22964 22.4643 1.22964C22.1296 1.22964 21.7982 1.29756 21.4891 1.4295C21.1799 1.56145 20.899 1.75484 20.6623 1.99865V1.99865Z" stroke="#031323" stroke-width="2" stroke-linecap="round" stroke-linejoin="round"/>
<path d="M22.2628 18.2294V22.4794C22.2628 23.2309 21.9731 23.9515 21.4574 24.4829C20.9416 25.0142 20.2422 25.3127 19.5128 25.3127H4.38782C3.65847 25.3127 2.959 25.0142 2.44327 24.4829C1.92755 23.9515 1.63782 23.2309 1.63782 22.4794V6.89608C1.63782 6.14463 1.92755 5.42396 2.44327 4.89261C2.959 4.36126 3.65847 4.06274 4.38782 4.06274H8.51282" stroke="#031323" stroke-width="2" stroke-linecap="round" stroke-linejoin="round"/>
</svg>
